<?xml version="1.0" standalone="no"?>
<!DOCTYPE svg PUBLIC "-//W3C//DTD SVG 20010904//EN"
 "http://www.w3.org/TR/2001/REC-SVG-20010904/DTD/svg10.dtd">
<svg version="1.0" xmlns="http://www.w3.org/2000/svg"
 width="32.000000pt" height="32.000000pt" viewBox="0 0 32.000000 32.000000"
 preserveAspectRatio="xMidYMid meet">

<g transform="translate(0.000000,32.000000) scale(0.100000,-0.100000)"
fill="#000000" stroke="none">
<path d="M16 304 c-23 -23 -23 -265 0 -288 23 -23 265 -23 288 0 23 23 23 265
0 288 -23 23 -265 23 -288 0z m240 -76 c-4 -24 -9 -71 -13 -106 -6 -66 -12
-76 -37 -66 -11 4 -16 19 -16 45 0 34 -3 39 -24 39 -20 0 -24 -6 -30 -40 -7
-42 -32 -63 -46 -39 -5 7 -6 26 -3 42 4 19 1 32 -8 38 -11 7 -10 11 7 23 25
18 38 56 20 56 -7 0 -17 -5 -24 -12 -15 -15 -26 -4 -18 17 7 18 47 35 83 35
24 0 25 -2 19 -41 -6 -38 -5 -40 15 -37 15 2 26 14 32 33 22 67 53 76 43 13z"/>
</g>
</svg>
