<?xml version="1.0" standalone="no"?>
<!DOCTYPE svg PUBLIC "-//W3C//DTD SVG 20010904//EN"
 "http://www.w3.org/TR/2001/REC-SVG-20010904/DTD/svg10.dtd">
<svg version="1.0" xmlns="http://www.w3.org/2000/svg"
 width="512.000000pt" height="512.000000pt" viewBox="0 0 512.000000 512.000000"
 preserveAspectRatio="xMidYMid meet">

<g transform="translate(0.000000,512.000000) scale(0.100000,-0.100000)"
fill="#7E64ED" stroke="none">
<path d="M440 5109 c-132 -19 -256 -93 -334 -199 -56 -75 -84 -151 -97 -254
-6 -51 -9 -857 -7 -2156 l3 -2075 22 -65 c55 -162 177 -282 337 -333 l71 -22
2125 0 2125 0 71 22 c163 52 285 174 337 338 l22 70 0 2125 0 2125 -22 71
c-51 160 -171 282 -333 337 l-65 22 -2100 1 c-1155 1 -2125 -2 -2155 -7z
m3629 -883 c26 -31 35 -142 23 -294 -14 -174 -27 -264 -93 -637 -226 -1283
-274 -1625 -288 -2060 -8 -248 -10 -258 -65 -291 -39 -23 -166 -30 -263 -15
-221 34 -303 123 -334 361 -19 150 5 428 72 829 35 206 36 201 -40 201 -24 0
-188 5 -364 11 -176 6 -347 8 -381 4 l-62 -6 -42 -172 c-95 -393 -152 -748
-152 -957 0 -47 -5 -102 -11 -123 -22 -79 -114 -148 -235 -176 -71 -17 -261
-30 -302 -20 -44 10 -80 44 -92 88 -16 55 -32 336 -25 431 13 178 59 450 126
729 16 68 28 126 26 128 -2 1 -51 -4 -108 -11 -57 -8 -147 -18 -200 -22 -91
-6 -98 -5 -118 15 -43 43 -1 132 110 235 82 76 218 149 353 192 l83 25 43 142
c63 210 153 468 219 629 32 79 57 144 56 146 -2 2 -58 -2 -126 -8 -281 -25
-449 -87 -624 -229 -113 -92 -138 -99 -178 -51 -38 45 -50 93 -45 184 5 105
45 183 134 264 203 187 697 320 1256 339 l186 6 45 -26 c62 -37 81 -80 73
-168 -8 -85 -48 -214 -80 -257 -13 -18 -27 -54 -31 -79 -15 -101 -191 -762
-211 -795 -3 -4 188 -8 425 -8 l430 0 11 43 c122 478 257 870 363 1058 75 134
206 275 308 334 49 27 110 33 128 11z"/>
</g>
</svg>
